# xmcd
#
# Track frame offsets: 
#        150
#        11321
#        20541
#        33559
#        46082
#        59183
#        72870
#        86557
#        95688
#        107264
#        123946
#
# Disc length: 1797 seconds
#
# Revision: 0
# Processed by: cddbd v1.5.2PL0 Copyright (c) Steve Scherf et al.
# Submitted via: ExactAudioCopy v0.99pb4
#
DISCID=8707030b
DTITLE=Adrian and Travis Hughes - Christmas in Winter Wonderland
DYEAR=1900
DGENRE=Country
TTITLE0=Jingle Bell
TTITLE1=Walking in a Winter Wonderland
TTITLE2=Silent Night
TTITLE3=It Came Upon the Midnight Clear
TTITLE4=Joseph's Song
TTITLE5=Silver Bells
TTITLE6=What Child is This
TTITLE7=Jolly Old St. Nicholas
TTITLE8=Jolly Old St. Nicholas
TTITLE9=We Three Kings
TTITLE10=Joy to the World
EXTD=
EXTT0=
EXTT1=
EXTT2=
EXTT3=
EXTT4=
EXTT5=
EXTT6=
EXTT7=
EXTT8=
EXTT9=
EXTT10=
PLAYORDER=
